<svg xmlns="http://www.w3.org/2000/svg" width="420mm" height="297mm" viewBox="0 0 420 297">
  <!-- Автор: Марьяновский Владислав Андреевич -->
  <rect width="420" height="297" fill="white"/>
  <text x="210" y="22" font-family="Arial, sans-serif" font-size="10" text-anchor="middle" fill="black">AR Chessboard Marker</text>
  <g transform="translate(90 34)">
    <rect x="0" y="0" width="240" height="240" fill="white" stroke="black" stroke-width="2"/>
    <rect x="0" y="0" width="30" height="30" fill="black"/>
    <rect x="60" y="0" width="30" height="30" fill="black"/>
    <rect x="120" y="0" width="30" height="30" fill="black"/>
    <rect x="180" y="0" width="30" height="30" fill="black"/>
    <rect x="30" y="30" width="30" height="30" fill="black"/>
    <rect x="90" y="30" width="30" height="30" fill="black"/>
    <rect x="150" y="30" width="30" height="30" fill="black"/>
    <rect x="210" y="30" width="30" height="30" fill="black"/>
    <rect x="0" y="60" width="30" height="30" fill="black"/>
    <rect x="60" y="60" width="30" height="30" fill="black"/>
    <rect x="120" y="60" width="30" height="30" fill="black"/>
    <rect x="180" y="60" width="30" height="30" fill="black"/>
    <rect x="30" y="90" width="30" height="30" fill="black"/>
    <rect x="90" y="90" width="30" height="30" fill="black"/>
    <rect x="150" y="90" width="30" height="30" fill="black"/>
    <rect x="210" y="90" width="30" height="30" fill="black"/>
    <rect x="0" y="120" width="30" height="30" fill="black"/>
    <rect x="60" y="120" width="30" height="30" fill="black"/>
    <rect x="120" y="120" width="30" height="30" fill="black"/>
    <rect x="180" y="120" width="30" height="30" fill="black"/>
    <rect x="30" y="150" width="30" height="30" fill="black"/>
    <rect x="90" y="150" width="30" height="30" fill="black"/>
    <rect x="150" y="150" width="30" height="30" fill="black"/>
    <rect x="210" y="150" width="30" height="30" fill="black"/>
    <rect x="0" y="180" width="30" height="30" fill="black"/>
    <rect x="60" y="180" width="30" height="30" fill="black"/>
    <rect x="120" y="180" width="30" height="30" fill="black"/>
    <rect x="180" y="180" width="30" height="30" fill="black"/>
    <rect x="30" y="210" width="30" height="30" fill="black"/>
    <rect x="90" y="210" width="30" height="30" fill="black"/>
    <rect x="150" y="210" width="30" height="30" fill="black"/>
    <rect x="210" y="210" width="30" height="30" fill="black"/>
  </g>
  <text x="210" y="286" font-family="Arial, sans-serif" font-size="8" text-anchor="middle" fill="black">Можно использовать распечатку, планшет или нарисованную шахматную доску с чередованием черных и белых клеток.</text>
</svg>
